<svg xmlns="http://www.w3.org/2000/svg" xmlns:xlink="http://www.w3.org/1999/xlink" width="424pt" height="443pt" viewBox="0 0 424 443"><g id="graph0" class="graph" transform="scale(1 1) rotate(0) translate(4 439)"><title>g</title><polygon fill="#fff" stroke="transparent" points="-4 4 -4 -439 420 -439 420 4 -4 4"/><g id="clust1" class="cluster"><title>cluster_input</title><polygon fill="none" stroke="#fff" points="0 -49 0 -385 84 -385 84 -49 0 -49"/><text x="42" y="-56.8" fill="#000" font-family="Times,serif" font-size="14" text-anchor="middle">Input Layer</text></g><g id="clust2" class="cluster"><title>cluster_1</title><polygon fill="none" stroke="#fff" points="92 -8 92 -427 199 -427 199 -8 92 -8"/><text x="145.5" y="-15.8" fill="#000" font-family="Times,serif" font-size="14" text-anchor="middle">Hidden Layer 1</text></g><g id="clust3" class="cluster"><title>cluster_2</title><polygon fill="none" stroke="#fff" points="207 -91 207 -344 314 -344 314 -91 207 -91"/><text x="260.5" y="-98.8" fill="#000" font-family="Times,serif" font-size="14" text-anchor="middle">Hidden Layer 2</text></g><g id="clust4" class="cluster"><title>cluster_output</title><polygon fill="none" stroke="#fff" points="322 -174 322 -261 416 -261 416 -174 322 -174"/><text x="369" y="-181.8" fill="#000" font-family="Times,serif" font-size="14" text-anchor="middle">Output Layer</text></g><g id="node1" class="node"><title>1</title><ellipse cx="41.5" cy="-353" fill="#ff006d" stroke="#ff006d" rx="23.5" ry="23.5"/><text x="41.5" y="-349.3" fill="#ff006d" font-family="Times,serif" font-size="14" text-anchor="middle">1</text></g><g id="node5" class="node"><title>5</title><ellipse cx="145.5" cy="-146" fill="#01befe" stroke="#01befe" rx="23.5" ry="23.5"/><text x="145.5" y="-142.3" fill="#01befe" font-family="Times,serif" font-size="14" text-anchor="middle">5</text></g><g id="edge1" class="edge"><title>1-&gt;5</title><path fill="none" stroke="#707070" stroke-width="2" d="M52.2381,-331.627C72.2189,-291.8576 114.8838,-206.9379 134.8203,-167.2567"/></g><g id="node6" class="node"><title>6</title><ellipse cx="145.5" cy="-63" fill="#01befe" stroke="#01befe" rx="23.5" ry="23.5"/><text x="145.5" y="-59.3" fill="#01befe" font-family="Times,serif" font-size="14" text-anchor="middle">6</text></g><g id="edge5" class="edge"><title>1-&gt;6</title><path fill="none" stroke="#707070" stroke-width="2" d="M49.488,-330.7257C68.8467,-276.7449 118.0981,-139.409 137.4848,-85.3502"/></g><g id="node7" class="node"><title>7</title><ellipse cx="145.5" cy="-395" fill="#01befe" stroke="#01befe" rx="23.5" ry="23.5"/><text x="145.5" y="-391.3" fill="#01befe" font-family="Times,serif" font-size="14" text-anchor="middle">7</text></g><g id="edge9" class="edge"><title>1-&gt;7</title><path fill="none" stroke="#707070" stroke-width="2" d="M63.3018,-361.8046C80.9324,-368.9246 105.6506,-378.907 123.3687,-386.0624"/></g><g id="node8" class="node"><title>8</title><ellipse cx="145.5" cy="-312" fill="#01befe" stroke="#01befe" rx="23.5" ry="23.5"/><text x="145.5" y="-308.3" fill="#01befe" font-family="Times,serif" font-size="14" text-anchor="middle">8</text></g><g id="edge13" class="edge"><title>1-&gt;8</title><path fill="none" stroke="#707070" stroke-width="2" d="M63.5557,-344.305C81.2049,-337.3471 105.8353,-327.637 123.4761,-320.6825"/></g><g id="node9" class="node"><title>9</title><ellipse cx="145.5" cy="-229" fill="#01befe" stroke="#01befe" rx="23.5" ry="23.5"/><text x="145.5" y="-225.3" fill="#01befe" font-family="Times,serif" font-size="14" text-anchor="middle">9</text></g><g id="edge17" class="edge"><title>1-&gt;9</title><path fill="none" stroke="#707070" stroke-width="2" d="M56.6225,-334.9693C76.3402,-311.4598 110.6326,-270.5727 130.3593,-247.0524"/></g><g id="node2" class="node"><title>2</title><ellipse cx="41.5" cy="-270" fill="#ff006d" stroke="#ff006d" rx="23.5" ry="23.5"/><text x="41.5" y="-266.3" fill="#ff006d" font-family="Times,serif" font-size="14" text-anchor="middle">2</text></g><g id="edge2" class="edge"><title>2-&gt;5</title><path fill="none" stroke="#707070" stroke-width="2" d="M56.6225,-251.9693C76.3402,-228.4598 110.6326,-187.5727 130.3593,-164.0524"/></g><g id="edge6" class="edge"><title>2-&gt;6</title><path fill="none" stroke="#707070" stroke-width="2" d="M52.2381,-248.627C72.2189,-208.8576 114.8838,-123.9379 134.8203,-84.2567"/></g><g id="edge10" class="edge"><title>2-&gt;7</title><path fill="none" stroke="#707070" stroke-width="2" d="M56.6225,-288.1761C76.3402,-311.8752 110.6326,-353.092 130.3593,-376.802"/></g><g id="edge14" class="edge"><title>2-&gt;8</title><path fill="none" stroke="#707070" stroke-width="2" d="M63.3018,-278.8046C80.9324,-285.9246 105.6506,-295.907 123.3687,-303.0624"/></g><g id="edge18" class="edge"><title>2-&gt;9</title><path fill="none" stroke="#707070" stroke-width="2" d="M63.5557,-261.305C81.2049,-254.3471 105.8353,-244.637 123.4761,-237.6825"/></g><g id="node3" class="node"><title>3</title><ellipse cx="41.5" cy="-187" fill="#ff006d" stroke="#ff006d" rx="23.5" ry="23.5"/><text x="41.5" y="-183.3" fill="#ff006d" font-family="Times,serif" font-size="14" text-anchor="middle">3</text></g><g id="edge3" class="edge"><title>3-&gt;5</title><path fill="none" stroke="#707070" stroke-width="2" d="M63.5557,-178.305C81.2049,-171.3471 105.8353,-161.637 123.4761,-154.6825"/></g><g id="edge7" class="edge"><title>3-&gt;6</title><path fill="none" stroke="#707070" stroke-width="2" d="M56.6225,-168.9693C76.3402,-145.4598 110.6326,-104.5727 130.3593,-81.0524"/></g><g id="edge11" class="edge"><title>3-&gt;7</title><path fill="none" stroke="#707070" stroke-width="2" d="M52.0444,-208.0888C71.9775,-247.9551 114.973,-333.9461 134.9277,-373.8554"/></g><g id="edge15" class="edge"><title>3-&gt;8</title><path fill="none" stroke="#707070" stroke-width="2" d="M56.6225,-205.1761C76.3402,-228.8752 110.6326,-270.092 130.3593,-293.802"/></g><g id="edge19" class="edge"><title>3-&gt;9</title><path fill="none" stroke="#707070" stroke-width="2" d="M63.3018,-195.8046C80.9324,-202.9246 105.6506,-212.907 123.3687,-220.0624"/></g><g id="node4" class="node"><title>4</title><ellipse cx="41.5" cy="-104" fill="#ff006d" stroke="#ff006d" rx="23.5" ry="23.5"/><text x="41.5" y="-100.3" fill="#ff006d" font-family="Times,serif" font-size="14" text-anchor="middle">4</text></g><g id="edge4" class="edge"><title>4-&gt;5</title><path fill="none" stroke="#707070" stroke-width="2" d="M63.3018,-112.8046C80.9324,-119.9246 105.6506,-129.907 123.3687,-137.0624"/></g><g id="edge8" class="edge"><title>4-&gt;6</title><path fill="none" stroke="#707070" stroke-width="2" d="M63.5557,-95.305C81.2049,-88.3471 105.8353,-78.637 123.4761,-71.6825"/></g><g id="edge12" class="edge"><title>4-&gt;7</title><path fill="none" stroke="#707070" stroke-width="2" d="M49.488,-126.3511C68.8467,-180.5181 118.0981,-318.3275 137.4848,-372.5728"/></g><g id="edge16" class="edge"><title>4-&gt;8</title><path fill="none" stroke="#707070" stroke-width="2" d="M52.0444,-125.0888C71.9775,-164.9551 114.973,-250.9461 134.9277,-290.8554"/></g><g id="edge20" class="edge"><title>4-&gt;9</title><path fill="none" stroke="#707070" stroke-width="2" d="M56.6225,-122.1761C76.3402,-145.8752 110.6326,-187.092 130.3593,-210.802"/></g><g id="node10" class="node"><title>10</title><ellipse cx="260.5" cy="-146" fill="#01befe" stroke="#01befe" rx="23.5" ry="23.5"/><text x="260.5" y="-142.3" fill="#01befe" font-family="Times,serif" font-size="14" text-anchor="middle">10</text></g><g id="edge21" class="edge"><title>5-&gt;10</title><path fill="none" stroke="#707070" stroke-width="2" d="M169.0495,-146C188.8946,-146 217.1458,-146 236.982,-146"/></g><g id="node11" class="node"><title>11</title><ellipse cx="260.5" cy="-312" fill="#01befe" stroke="#01befe" rx="23.5" ry="23.5"/><text x="260.5" y="-308.3" fill="#01befe" font-family="Times,serif" font-size="14" text-anchor="middle">11</text></g><g id="edge26" class="edge"><title>5-&gt;11</title><path fill="none" stroke="#707070" stroke-width="2" d="M158.917,-165.3672C181.0171,-197.2681 224.8303,-260.5116 246.9907,-292.4996"/></g><g id="node12" class="node"><title>12</title><ellipse cx="260.5" cy="-229" fill="#01befe" stroke="#01befe" rx="23.5" ry="23.5"/><text x="260.5" y="-225.3" fill="#01befe" font-family="Times,serif" font-size="14" text-anchor="middle">12</text></g><g id="edge31" class="edge"><title>5-&gt;12</title><path fill="none" stroke="#707070" stroke-width="2" d="M164.7484,-159.8923C185.9768,-175.2137 219.9354,-199.7229 241.1888,-215.0623"/></g><g id="edge22" class="edge"><title>6-&gt;10</title><path fill="none" stroke="#707070" stroke-width="2" d="M164.7484,-76.8923C185.9768,-92.2137 219.9354,-116.7229 241.1888,-132.0623"/></g><g id="edge27" class="edge"><title>6-&gt;11</title><path fill="none" stroke="#707070" stroke-width="2" d="M155.5043,-84.6615C177.3081,-131.8715 228.8929,-243.5638 250.6007,-290.5659"/></g><g id="edge32" class="edge"><title>6-&gt;12</title><path fill="none" stroke="#707070" stroke-width="2" d="M158.917,-82.3672C181.0171,-114.2681 224.8303,-177.5116 246.9907,-209.4996"/></g><g id="edge23" class="edge"><title>7-&gt;10</title><path fill="none" stroke="#707070" stroke-width="2" d="M155.5043,-373.3385C177.3081,-326.1285 228.8929,-214.4362 250.6007,-167.4341"/></g><g id="edge28" class="edge"><title>7-&gt;11</title><path fill="none" stroke="#707070" stroke-width="2" d="M164.7484,-381.1077C185.9768,-365.7863 219.9354,-341.2771 241.1888,-325.9377"/></g><g id="edge33" class="edge"><title>7-&gt;12</title><path fill="none" stroke="#707070" stroke-width="2" d="M158.917,-375.6328C181.0171,-343.7319 224.8303,-280.4884 246.9907,-248.5004"/></g><g id="edge24" class="edge"><title>8-&gt;10</title><path fill="none" stroke="#707070" stroke-width="2" d="M158.917,-292.6328C181.0171,-260.7319 224.8303,-197.4884 246.9907,-165.5004"/></g><g id="edge29" class="edge"><title>8-&gt;11</title><path fill="none" stroke="#707070" stroke-width="2" d="M169.0495,-312C188.8946,-312 217.1458,-312 236.982,-312"/></g><g id="edge34" class="edge"><title>8-&gt;12</title><path fill="none" stroke="#707070" stroke-width="2" d="M164.7484,-298.1077C185.9768,-282.7863 219.9354,-258.2771 241.1888,-242.9377"/></g><g id="edge25" class="edge"><title>9-&gt;10</title><path fill="none" stroke="#707070" stroke-width="2" d="M164.7484,-215.1077C185.9768,-199.7863 219.9354,-175.2771 241.1888,-159.9377"/></g><g id="edge30" class="edge"><title>9-&gt;11</title><path fill="none" stroke="#707070" stroke-width="2" d="M164.7484,-242.8923C185.9768,-258.2137 219.9354,-282.7229 241.1888,-298.0623"/></g><g id="edge35" class="edge"><title>9-&gt;12</title><path fill="none" stroke="#707070" stroke-width="2" d="M169.0495,-229C188.8946,-229 217.1458,-229 236.982,-229"/></g><g id="node13" class="node"><title>13</title><ellipse cx="368.5" cy="-229" fill="#93d30c" stroke="#93d30c" rx="23.5" ry="23.5"/><text x="368.5" y="-225.3" fill="#93d30c" font-family="Times,serif" font-size="14" text-anchor="middle">13</text></g><g id="edge36" class="edge"><title>10-&gt;13</title><path fill="none" stroke="#707070" stroke-width="2" d="M279.3122,-160.4575C299.014,-175.5987 329.7845,-199.2464 349.541,-214.4297"/></g><g id="edge37" class="edge"><title>11-&gt;13</title><path fill="none" stroke="#707070" stroke-width="2" d="M279.3122,-297.5425C299.014,-282.4013 329.7845,-258.7536 349.541,-243.5703"/></g><g id="edge38" class="edge"><title>12-&gt;13</title><path fill="none" stroke="#707070" stroke-width="2" d="M284.2011,-229C302.208,-229 326.8609,-229 344.8542,-229"/></g></g></svg>